<mxfile host="app.diagrams.net" modified="2023-06-01T04:34:52.381Z" agent="Mozilla/5.0 (Windows NT 10.0; Win64; x64) AppleWebKit/537.36 (KHTML, like Gecko) Chrome/113.0.0.0 Safari/537.36" etag="4awm4qwBnOJUXPW_d89y" version="21.3.6" type="google">
  <diagram name="Página-1" id="PIklZzsJ2BpsdOLTz_9t">
    <mxGraphModel grid="1" page="1" gridSize="10" guides="1" tooltips="1" connect="1" arrows="1" fold="1" pageScale="1" pageWidth="827" pageHeight="1169" math="0" shadow="0">
      <root>
        <mxCell id="0" />
        <mxCell id="1" parent="0" />
        <mxCell id="p-Tx8P7YwuyTGG2r0MlX-31" style="edgeStyle=orthogonalEdgeStyle;rounded=0;orthogonalLoop=1;jettySize=auto;html=1;entryX=0.556;entryY=1.011;entryDx=0;entryDy=0;entryPerimeter=0;dashed=1;endArrow=open;endFill=0;" edge="1" parent="1" source="p-Tx8P7YwuyTGG2r0MlX-27" target="p-Tx8P7YwuyTGG2r0MlX-29">
          <mxGeometry relative="1" as="geometry">
            <Array as="points">
              <mxPoint x="1120" y="30" />
              <mxPoint x="1120" y="30" />
            </Array>
          </mxGeometry>
        </mxCell>
        <mxCell id="p-Tx8P7YwuyTGG2r0MlX-35" style="edgeStyle=orthogonalEdgeStyle;rounded=0;orthogonalLoop=1;jettySize=auto;html=1;entryX=0.5;entryY=1;entryDx=0;entryDy=0;endArrow=open;endFill=0;dashed=1;" edge="1" parent="1" source="p-Tx8P7YwuyTGG2r0MlX-27" target="p-Tx8P7YwuyTGG2r0MlX-32">
          <mxGeometry relative="1" as="geometry" />
        </mxCell>
        <mxCell id="p-Tx8P7YwuyTGG2r0MlX-27" value="" style="rounded=0;whiteSpace=wrap;html=1;fillColor=none;" vertex="1" parent="1">
          <mxGeometry x="386" y="61" width="950" height="510" as="geometry" />
        </mxCell>
        <mxCell id="p-Tx8P7YwuyTGG2r0MlX-64" style="edgeStyle=orthogonalEdgeStyle;rounded=0;orthogonalLoop=1;jettySize=auto;html=1;dashed=1;endArrow=open;endFill=0;" edge="1" parent="1" source="p-Tx8P7YwuyTGG2r0MlX-1" target="p-Tx8P7YwuyTGG2r0MlX-61">
          <mxGeometry relative="1" as="geometry">
            <Array as="points">
              <mxPoint x="860" y="100" />
              <mxPoint x="580" y="100" />
            </Array>
          </mxGeometry>
        </mxCell>
        <mxCell id="p-Tx8P7YwuyTGG2r0MlX-1" value="«jar»&lt;br&gt;&lt;b&gt;ApipetCrossCutting&lt;/b&gt;" style="html=1;dropTarget=0;whiteSpace=wrap;fillColor=#fff2cc;strokeColor=#d6b656;" vertex="1" parent="1">
          <mxGeometry x="770" y="125" width="180" height="90" as="geometry" />
        </mxCell>
        <mxCell id="p-Tx8P7YwuyTGG2r0MlX-2" value="" style="shape=module;jettyWidth=8;jettyHeight=4;" vertex="1" parent="p-Tx8P7YwuyTGG2r0MlX-1">
          <mxGeometry x="1" width="20" height="20" relative="1" as="geometry">
            <mxPoint x="-27" y="7" as="offset" />
          </mxGeometry>
        </mxCell>
        <mxCell id="p-Tx8P7YwuyTGG2r0MlX-5" style="edgeStyle=orthogonalEdgeStyle;rounded=0;orthogonalLoop=1;jettySize=auto;html=1;endArrow=open;endFill=0;dashed=1;startArrow=none;entryX=0;entryY=0.75;entryDx=0;entryDy=0;" edge="1" parent="1" source="p-Tx8P7YwuyTGG2r0MlX-3" target="p-Tx8P7YwuyTGG2r0MlX-1">
          <mxGeometry relative="1" as="geometry">
            <mxPoint x="550" y="215" as="sourcePoint" />
            <Array as="points">
              <mxPoint x="550" y="193" />
            </Array>
          </mxGeometry>
        </mxCell>
        <mxCell id="p-Tx8P7YwuyTGG2r0MlX-12" style="edgeStyle=orthogonalEdgeStyle;rounded=0;orthogonalLoop=1;jettySize=auto;html=1;entryX=0;entryY=0.5;entryDx=0;entryDy=0;endArrow=open;endFill=0;dashed=1;" edge="1" parent="1" source="p-Tx8P7YwuyTGG2r0MlX-3" target="p-Tx8P7YwuyTGG2r0MlX-8">
          <mxGeometry relative="1" as="geometry" />
        </mxCell>
        <mxCell id="p-Tx8P7YwuyTGG2r0MlX-18" style="edgeStyle=orthogonalEdgeStyle;rounded=0;orthogonalLoop=1;jettySize=auto;html=1;entryX=0;entryY=0.5;entryDx=0;entryDy=0;endArrow=open;endFill=0;dashed=1;" edge="1" parent="1" source="p-Tx8P7YwuyTGG2r0MlX-3" target="p-Tx8P7YwuyTGG2r0MlX-16">
          <mxGeometry relative="1" as="geometry" />
        </mxCell>
        <mxCell id="p-Tx8P7YwuyTGG2r0MlX-3" value="«jar»&lt;br&gt;&lt;b&gt;ApipetApi&lt;/b&gt;" style="html=1;dropTarget=0;whiteSpace=wrap;fillColor=#fff2cc;strokeColor=#d6b656;" vertex="1" parent="1">
          <mxGeometry x="460" y="290" width="180" height="90" as="geometry" />
        </mxCell>
        <mxCell id="p-Tx8P7YwuyTGG2r0MlX-4" value="" style="shape=module;jettyWidth=8;jettyHeight=4;" vertex="1" parent="p-Tx8P7YwuyTGG2r0MlX-3">
          <mxGeometry x="1" width="20" height="20" relative="1" as="geometry">
            <mxPoint x="-27" y="7" as="offset" />
          </mxGeometry>
        </mxCell>
        <mxCell id="p-Tx8P7YwuyTGG2r0MlX-13" style="edgeStyle=orthogonalEdgeStyle;rounded=0;orthogonalLoop=1;jettySize=auto;html=1;entryX=0;entryY=0.5;entryDx=0;entryDy=0;dashed=1;endArrow=open;endFill=0;" edge="1" parent="1" source="p-Tx8P7YwuyTGG2r0MlX-8" target="p-Tx8P7YwuyTGG2r0MlX-10">
          <mxGeometry relative="1" as="geometry" />
        </mxCell>
        <mxCell id="p-Tx8P7YwuyTGG2r0MlX-19" style="edgeStyle=orthogonalEdgeStyle;rounded=0;orthogonalLoop=1;jettySize=auto;html=1;entryX=1;entryY=0.5;entryDx=0;entryDy=0;endArrow=open;endFill=0;dashed=1;" edge="1" parent="1" source="p-Tx8P7YwuyTGG2r0MlX-8" target="p-Tx8P7YwuyTGG2r0MlX-16">
          <mxGeometry relative="1" as="geometry">
            <Array as="points">
              <mxPoint x="830" y="475" />
            </Array>
          </mxGeometry>
        </mxCell>
        <mxCell id="p-Tx8P7YwuyTGG2r0MlX-21" style="edgeStyle=orthogonalEdgeStyle;rounded=0;orthogonalLoop=1;jettySize=auto;html=1;entryX=0;entryY=0.5;entryDx=0;entryDy=0;endArrow=open;endFill=0;dashed=1;" edge="1" parent="1" source="p-Tx8P7YwuyTGG2r0MlX-8" target="p-Tx8P7YwuyTGG2r0MlX-14">
          <mxGeometry relative="1" as="geometry">
            <Array as="points">
              <mxPoint x="870" y="475" />
            </Array>
          </mxGeometry>
        </mxCell>
        <mxCell id="p-Tx8P7YwuyTGG2r0MlX-23" style="edgeStyle=orthogonalEdgeStyle;rounded=0;orthogonalLoop=1;jettySize=auto;html=1;entryX=0.5;entryY=1;entryDx=0;entryDy=0;endArrow=open;endFill=0;dashed=1;" edge="1" parent="1" source="p-Tx8P7YwuyTGG2r0MlX-8" target="p-Tx8P7YwuyTGG2r0MlX-1">
          <mxGeometry relative="1" as="geometry" />
        </mxCell>
        <mxCell id="p-Tx8P7YwuyTGG2r0MlX-8" value="«jar»&lt;br&gt;&lt;b&gt;ApipetService&lt;/b&gt;" style="html=1;dropTarget=0;whiteSpace=wrap;fillColor=#fff2cc;strokeColor=#d6b656;" vertex="1" parent="1">
          <mxGeometry x="770" y="290" width="180" height="90" as="geometry" />
        </mxCell>
        <mxCell id="p-Tx8P7YwuyTGG2r0MlX-9" value="" style="shape=module;jettyWidth=8;jettyHeight=4;" vertex="1" parent="p-Tx8P7YwuyTGG2r0MlX-8">
          <mxGeometry x="1" width="20" height="20" relative="1" as="geometry">
            <mxPoint x="-27" y="7" as="offset" />
          </mxGeometry>
        </mxCell>
        <mxCell id="p-Tx8P7YwuyTGG2r0MlX-22" style="edgeStyle=orthogonalEdgeStyle;rounded=0;orthogonalLoop=1;jettySize=auto;html=1;entryX=1;entryY=0.5;entryDx=0;entryDy=0;endArrow=open;endFill=0;dashed=1;" edge="1" parent="1" source="p-Tx8P7YwuyTGG2r0MlX-10" target="p-Tx8P7YwuyTGG2r0MlX-14">
          <mxGeometry relative="1" as="geometry" />
        </mxCell>
        <mxCell id="p-Tx8P7YwuyTGG2r0MlX-24" style="edgeStyle=orthogonalEdgeStyle;rounded=0;orthogonalLoop=1;jettySize=auto;html=1;entryX=1;entryY=0.75;entryDx=0;entryDy=0;dashed=1;endArrow=open;endFill=0;" edge="1" parent="1" source="p-Tx8P7YwuyTGG2r0MlX-10" target="p-Tx8P7YwuyTGG2r0MlX-1">
          <mxGeometry relative="1" as="geometry">
            <Array as="points">
              <mxPoint x="1130" y="193" />
            </Array>
          </mxGeometry>
        </mxCell>
        <mxCell id="p-Tx8P7YwuyTGG2r0MlX-10" value="«jar»&lt;br&gt;&lt;b&gt;ApipetRepository&lt;/b&gt;" style="html=1;dropTarget=0;whiteSpace=wrap;fillColor=#fff2cc;strokeColor=#d6b656;" vertex="1" parent="1">
          <mxGeometry x="1050" y="290" width="180" height="90" as="geometry" />
        </mxCell>
        <mxCell id="p-Tx8P7YwuyTGG2r0MlX-11" value="" style="shape=module;jettyWidth=8;jettyHeight=4;" vertex="1" parent="p-Tx8P7YwuyTGG2r0MlX-10">
          <mxGeometry x="1" width="20" height="20" relative="1" as="geometry">
            <mxPoint x="-27" y="7" as="offset" />
          </mxGeometry>
        </mxCell>
        <mxCell id="p-Tx8P7YwuyTGG2r0MlX-26" style="edgeStyle=orthogonalEdgeStyle;rounded=0;orthogonalLoop=1;jettySize=auto;html=1;entryX=1;entryY=0.25;entryDx=0;entryDy=0;dashed=1;endArrow=open;endFill=0;" edge="1" parent="1" source="p-Tx8P7YwuyTGG2r0MlX-14" target="p-Tx8P7YwuyTGG2r0MlX-1">
          <mxGeometry relative="1" as="geometry">
            <Array as="points">
              <mxPoint x="1300" y="500" />
              <mxPoint x="1300" y="148" />
            </Array>
          </mxGeometry>
        </mxCell>
        <mxCell id="p-Tx8P7YwuyTGG2r0MlX-14" value="«jar»&lt;br&gt;&lt;b&gt;ApipetEntity&lt;/b&gt;" style="html=1;dropTarget=0;whiteSpace=wrap;fillColor=#fff2cc;strokeColor=#d6b656;" vertex="1" parent="1">
          <mxGeometry x="917" y="430" width="180" height="90" as="geometry" />
        </mxCell>
        <mxCell id="p-Tx8P7YwuyTGG2r0MlX-15" value="" style="shape=module;jettyWidth=8;jettyHeight=4;" vertex="1" parent="p-Tx8P7YwuyTGG2r0MlX-14">
          <mxGeometry x="1" width="20" height="20" relative="1" as="geometry">
            <mxPoint x="-27" y="7" as="offset" />
          </mxGeometry>
        </mxCell>
        <mxCell id="p-Tx8P7YwuyTGG2r0MlX-25" style="edgeStyle=orthogonalEdgeStyle;rounded=0;orthogonalLoop=1;jettySize=auto;html=1;entryX=0;entryY=0.25;entryDx=0;entryDy=0;dashed=1;endArrow=open;endFill=0;" edge="1" parent="1" source="p-Tx8P7YwuyTGG2r0MlX-16" target="p-Tx8P7YwuyTGG2r0MlX-1">
          <mxGeometry relative="1" as="geometry">
            <Array as="points">
              <mxPoint x="420" y="500" />
              <mxPoint x="420" y="148" />
            </Array>
          </mxGeometry>
        </mxCell>
        <mxCell id="p-Tx8P7YwuyTGG2r0MlX-16" value="«jar»&lt;br&gt;&lt;b&gt;ApipetDTO&lt;/b&gt;" style="html=1;dropTarget=0;whiteSpace=wrap;fillColor=#fff2cc;strokeColor=#d6b656;" vertex="1" parent="1">
          <mxGeometry x="619" y="430" width="180" height="90" as="geometry" />
        </mxCell>
        <mxCell id="p-Tx8P7YwuyTGG2r0MlX-17" value="" style="shape=module;jettyWidth=8;jettyHeight=4;" vertex="1" parent="p-Tx8P7YwuyTGG2r0MlX-16">
          <mxGeometry x="1" width="20" height="20" relative="1" as="geometry">
            <mxPoint x="-27" y="7" as="offset" />
          </mxGeometry>
        </mxCell>
        <mxCell id="p-Tx8P7YwuyTGG2r0MlX-28" value="Apipet Backend" style="text;html=1;align=center;verticalAlign=middle;resizable=0;points=[];autosize=1;strokeColor=none;fillColor=none;" vertex="1" parent="1">
          <mxGeometry x="802" y="61" width="110" height="30" as="geometry" />
        </mxCell>
        <mxCell id="p-Tx8P7YwuyTGG2r0MlX-29" value="«jar»&lt;br&gt;&lt;b&gt;Java 20&lt;/b&gt;" style="html=1;dropTarget=0;whiteSpace=wrap;fillColor=#dae8fc;strokeColor=#6c8ebf;" vertex="1" parent="1">
          <mxGeometry x="1020" y="-110" width="180" height="90" as="geometry" />
        </mxCell>
        <mxCell id="p-Tx8P7YwuyTGG2r0MlX-30" value="" style="shape=module;jettyWidth=8;jettyHeight=4;" vertex="1" parent="p-Tx8P7YwuyTGG2r0MlX-29">
          <mxGeometry x="1" width="20" height="20" relative="1" as="geometry">
            <mxPoint x="-27" y="7" as="offset" />
          </mxGeometry>
        </mxCell>
        <mxCell id="p-Tx8P7YwuyTGG2r0MlX-34" style="edgeStyle=orthogonalEdgeStyle;rounded=0;orthogonalLoop=1;jettySize=auto;html=1;entryX=0;entryY=0.5;entryDx=0;entryDy=0;dashed=1;endArrow=open;endFill=0;" edge="1" parent="1" source="p-Tx8P7YwuyTGG2r0MlX-32" target="p-Tx8P7YwuyTGG2r0MlX-29">
          <mxGeometry relative="1" as="geometry" />
        </mxCell>
        <mxCell id="p-Tx8P7YwuyTGG2r0MlX-32" value="«jar»&lt;br&gt;&lt;b&gt;SpringBoot 3.0.6&lt;/b&gt;" style="html=1;dropTarget=0;whiteSpace=wrap;fillColor=#dae8fc;strokeColor=#6c8ebf;" vertex="1" parent="1">
          <mxGeometry x="771" y="-110" width="180" height="90" as="geometry" />
        </mxCell>
        <mxCell id="p-Tx8P7YwuyTGG2r0MlX-33" value="" style="shape=module;jettyWidth=8;jettyHeight=4;" vertex="1" parent="p-Tx8P7YwuyTGG2r0MlX-32">
          <mxGeometry x="1" width="20" height="20" relative="1" as="geometry">
            <mxPoint x="-27" y="7" as="offset" />
          </mxGeometry>
        </mxCell>
        <mxCell id="p-Tx8P7YwuyTGG2r0MlX-48" value="&amp;lt;&amp;lt;use&amp;gt;&amp;gt;" style="text;html=1;align=center;verticalAlign=middle;resizable=0;points=[];autosize=1;strokeColor=none;fillColor=none;" vertex="1" parent="1">
          <mxGeometry x="516" y="230" width="70" height="30" as="geometry" />
        </mxCell>
        <mxCell id="p-Tx8P7YwuyTGG2r0MlX-49" value="&amp;lt;&amp;lt;use&amp;gt;&amp;gt;" style="text;html=1;align=center;verticalAlign=middle;resizable=0;points=[];autosize=1;strokeColor=none;fillColor=none;" vertex="1" parent="1">
          <mxGeometry x="825" y="230" width="70" height="30" as="geometry" />
        </mxCell>
        <mxCell id="p-Tx8P7YwuyTGG2r0MlX-50" value="&amp;lt;&amp;lt;use&amp;gt;&amp;gt;" style="text;html=1;align=center;verticalAlign=middle;resizable=0;points=[];autosize=1;strokeColor=none;fillColor=none;" vertex="1" parent="1">
          <mxGeometry x="1096" y="230" width="70" height="30" as="geometry" />
        </mxCell>
        <mxCell id="p-Tx8P7YwuyTGG2r0MlX-51" value="&amp;lt;&amp;lt;use&amp;gt;&amp;gt;" style="text;html=1;align=center;verticalAlign=middle;resizable=0;points=[];autosize=1;strokeColor=none;fillColor=none;" vertex="1" parent="1">
          <mxGeometry x="663" y="313" width="70" height="30" as="geometry" />
        </mxCell>
        <mxCell id="p-Tx8P7YwuyTGG2r0MlX-52" value="&amp;lt;&amp;lt;use&amp;gt;&amp;gt;" style="text;html=1;align=center;verticalAlign=middle;resizable=0;points=[];autosize=1;strokeColor=none;fillColor=none;" vertex="1" parent="1">
          <mxGeometry x="970" y="314" width="70" height="30" as="geometry" />
        </mxCell>
        <mxCell id="p-Tx8P7YwuyTGG2r0MlX-53" value="&amp;lt;&amp;lt;use&amp;gt;&amp;gt;" style="text;html=1;align=center;verticalAlign=middle;resizable=0;points=[];autosize=1;strokeColor=none;fillColor=none;" vertex="1" parent="1">
          <mxGeometry x="516" y="410" width="70" height="30" as="geometry" />
        </mxCell>
        <mxCell id="p-Tx8P7YwuyTGG2r0MlX-54" value="&amp;lt;&amp;lt;use&amp;gt;&amp;gt;" style="text;html=1;align=center;verticalAlign=middle;resizable=0;points=[];autosize=1;strokeColor=none;fillColor=none;" vertex="1" parent="1">
          <mxGeometry x="795" y="390" width="70" height="30" as="geometry" />
        </mxCell>
        <mxCell id="p-Tx8P7YwuyTGG2r0MlX-55" value="&amp;lt;&amp;lt;use&amp;gt;&amp;gt;" style="text;html=1;align=center;verticalAlign=middle;resizable=0;points=[];autosize=1;strokeColor=none;fillColor=none;" vertex="1" parent="1">
          <mxGeometry x="835" y="420" width="70" height="30" as="geometry" />
        </mxCell>
        <mxCell id="p-Tx8P7YwuyTGG2r0MlX-56" value="&amp;lt;&amp;lt;use&amp;gt;&amp;gt;" style="text;html=1;align=center;verticalAlign=middle;resizable=0;points=[];autosize=1;strokeColor=none;fillColor=none;" vertex="1" parent="1">
          <mxGeometry x="1104" y="412" width="70" height="30" as="geometry" />
        </mxCell>
        <mxCell id="p-Tx8P7YwuyTGG2r0MlX-57" value="&amp;lt;&amp;lt;use&amp;gt;&amp;gt;" style="text;html=1;align=center;verticalAlign=middle;resizable=0;points=[];autosize=1;strokeColor=none;fillColor=none;" vertex="1" parent="1">
          <mxGeometry x="1265" y="306" width="70" height="30" as="geometry" />
        </mxCell>
        <mxCell id="p-Tx8P7YwuyTGG2r0MlX-58" value="&amp;lt;&amp;lt;use&amp;gt;&amp;gt;" style="text;html=1;align=center;verticalAlign=middle;resizable=0;points=[];autosize=1;strokeColor=none;fillColor=none;" vertex="1" parent="1">
          <mxGeometry x="385" y="290" width="70" height="30" as="geometry" />
        </mxCell>
        <mxCell id="p-Tx8P7YwuyTGG2r0MlX-59" value="&amp;lt;&amp;lt;use&amp;gt;&amp;gt;" style="text;html=1;align=center;verticalAlign=middle;resizable=0;points=[];autosize=1;strokeColor=none;fillColor=none;" vertex="1" parent="1">
          <mxGeometry x="826" y="10" width="70" height="30" as="geometry" />
        </mxCell>
        <mxCell id="p-Tx8P7YwuyTGG2r0MlX-60" value="&amp;lt;&amp;lt;use&amp;gt;&amp;gt;" style="text;html=1;align=center;verticalAlign=middle;resizable=0;points=[];autosize=1;strokeColor=none;fillColor=none;" vertex="1" parent="1">
          <mxGeometry x="1086" y="10" width="70" height="30" as="geometry" />
        </mxCell>
        <mxCell id="p-Tx8P7YwuyTGG2r0MlX-67" style="edgeStyle=orthogonalEdgeStyle;rounded=0;orthogonalLoop=1;jettySize=auto;html=1;entryX=0.5;entryY=0;entryDx=0;entryDy=0;dashed=1;endArrow=open;endFill=0;" edge="1" parent="1" source="p-Tx8P7YwuyTGG2r0MlX-61" target="p-Tx8P7YwuyTGG2r0MlX-29">
          <mxGeometry relative="1" as="geometry">
            <Array as="points">
              <mxPoint x="580" y="-160" />
              <mxPoint x="1110" y="-160" />
            </Array>
          </mxGeometry>
        </mxCell>
        <mxCell id="p-Tx8P7YwuyTGG2r0MlX-61" value="«jar»&lt;br&gt;&lt;b&gt;UcoCrossCutting&lt;/b&gt;" style="html=1;dropTarget=0;whiteSpace=wrap;fillColor=#d5e8d4;strokeColor=#82b366;" vertex="1" parent="1">
          <mxGeometry x="490" y="-110" width="180" height="90" as="geometry" />
        </mxCell>
        <mxCell id="p-Tx8P7YwuyTGG2r0MlX-62" value="" style="shape=module;jettyWidth=8;jettyHeight=4;" vertex="1" parent="p-Tx8P7YwuyTGG2r0MlX-61">
          <mxGeometry x="1" width="20" height="20" relative="1" as="geometry">
            <mxPoint x="-27" y="7" as="offset" />
          </mxGeometry>
        </mxCell>
        <mxCell id="p-Tx8P7YwuyTGG2r0MlX-65" value="&amp;lt;&amp;lt;use&amp;gt;&amp;gt;" style="text;html=1;align=center;verticalAlign=middle;resizable=0;points=[];autosize=1;strokeColor=none;fillColor=none;" vertex="1" parent="1">
          <mxGeometry x="546" y="6" width="70" height="30" as="geometry" />
        </mxCell>
        <mxCell id="p-Tx8P7YwuyTGG2r0MlX-68" value="&amp;lt;&amp;lt;use&amp;gt;&amp;gt;" style="text;html=1;align=center;verticalAlign=middle;resizable=0;points=[];autosize=1;strokeColor=none;fillColor=none;" vertex="1" parent="1">
          <mxGeometry x="819" y="-183" width="70" height="30" as="geometry" />
        </mxCell>
        <mxCell id="p-Tx8P7YwuyTGG2r0MlX-71" style="edgeStyle=orthogonalEdgeStyle;rounded=0;orthogonalLoop=1;jettySize=auto;html=1;entryX=0;entryY=0.5;entryDx=0;entryDy=0;endArrow=none;endFill=0;" edge="1" parent="1" source="p-Tx8P7YwuyTGG2r0MlX-70" target="p-Tx8P7YwuyTGG2r0MlX-3">
          <mxGeometry relative="1" as="geometry" />
        </mxCell>
        <mxCell id="p-Tx8P7YwuyTGG2r0MlX-70" value="" style="ellipse;whiteSpace=wrap;html=1;aspect=fixed;" vertex="1" parent="1">
          <mxGeometry x="280" y="314" width="41" height="41" as="geometry" />
        </mxCell>
        <mxCell id="p-Tx8P7YwuyTGG2r0MlX-72" value="REST" style="text;html=1;align=center;verticalAlign=middle;resizable=0;points=[];autosize=1;strokeColor=none;fillColor=none;" vertex="1" parent="1">
          <mxGeometry x="270.5" y="284" width="60" height="30" as="geometry" />
        </mxCell>
        <mxCell id="p-Tx8P7YwuyTGG2r0MlX-73" value="&lt;span style=&quot;border-color: var(--border-color);&quot;&gt;&lt;b style=&quot;border-color: var(--border-color); text-align: center;&quot;&gt;ApipetCrossCutting:&amp;nbsp;&lt;/b&gt;Componente que ofrece características aspectuales que pueden ser utilizadas de forma general por cualquier componente de la aplicación Apipet.&lt;br&gt;&lt;b&gt;ApieptDTO:&amp;nbsp;&lt;/b&gt;Componente que ofrece los objetos de transferencia de datos para poder intercambiar información entre el componente de API y el componente Service.&lt;br&gt;&lt;div style=&quot;text-align: left;&quot;&gt;&lt;b style=&quot;background-color: initial; border-color: var(--border-color); text-align: center;&quot;&gt;ApipetEntity:&amp;nbsp;&lt;/b&gt;&lt;span style=&quot;background-color: initial;&quot;&gt;Componente que tiene todas las entidades de acceso a datos que serán utilizadas por el componente de repositorio para llevar a cabo las operaciones de acceso a datos.&lt;/span&gt;&lt;/div&gt;&lt;b&gt;Apipet&lt;/b&gt;&lt;b style=&quot;border-color: var(--border-color); text-align: center;&quot;&gt;Repository:&amp;nbsp;&lt;/b&gt;Componente que ofrece los mecanismos de acceso a datos para el proyecto Apipet.&lt;br&gt;&lt;b&gt;Apipet&lt;/b&gt;&lt;b style=&quot;font-weight: bold; border-color: var(--border-color); text-align: center;&quot;&gt;Service:&amp;nbsp;&lt;/b&gt;Componente encargado de garantizar el cumplimiento de toda la lógica de negocio de la aplicación, asegurando que el dominio esté protegido de accesos no autorizados en la aplicación Apipet.&lt;br&gt;&lt;b&gt;ApipetApi:&amp;nbsp;&lt;/b&gt;&lt;/span&gt;Componente encargado de publicar Apis relacionados con los servicios de negocio ofrecidos por la aplicación Apipet.&lt;br&gt;&lt;b style=&quot;border-color: var(--border-color);&quot;&gt;UcoCrossCutting:&amp;nbsp;&lt;/b&gt;Componente que ofrece características aspectuales que pueden ser utilizadas de forma general por cualquier proyecto construido sobre Java versión 20." style="text;html=1;align=left;verticalAlign=middle;resizable=0;points=[];autosize=1;strokeColor=none;fillColor=none;" vertex="1" parent="1">
          <mxGeometry x="245" y="600" width="1140" height="110" as="geometry" />
        </mxCell>
        <mxCell id="p-Tx8P7YwuyTGG2r0MlX-74" value="Componentes externos" style="html=1;dropTarget=0;whiteSpace=wrap;fillColor=#dae8fc;strokeColor=#6c8ebf;" vertex="1" parent="1">
          <mxGeometry x="1390" y="140" width="180" height="90" as="geometry" />
        </mxCell>
        <mxCell id="p-Tx8P7YwuyTGG2r0MlX-75" value="" style="shape=module;jettyWidth=8;jettyHeight=4;" vertex="1" parent="p-Tx8P7YwuyTGG2r0MlX-74">
          <mxGeometry x="1" width="20" height="20" relative="1" as="geometry">
            <mxPoint x="-27" y="7" as="offset" />
          </mxGeometry>
        </mxCell>
        <mxCell id="p-Tx8P7YwuyTGG2r0MlX-76" value="Componentes propios de la organización UCO" style="html=1;dropTarget=0;whiteSpace=wrap;fillColor=#d5e8d4;strokeColor=#82b366;" vertex="1" parent="1">
          <mxGeometry x="1390" y="240" width="180" height="90" as="geometry" />
        </mxCell>
        <mxCell id="p-Tx8P7YwuyTGG2r0MlX-77" value="" style="shape=module;jettyWidth=8;jettyHeight=4;" vertex="1" parent="p-Tx8P7YwuyTGG2r0MlX-76">
          <mxGeometry x="1" width="20" height="20" relative="1" as="geometry">
            <mxPoint x="-27" y="7" as="offset" />
          </mxGeometry>
        </mxCell>
        <mxCell id="p-Tx8P7YwuyTGG2r0MlX-78" value="Componentes propios de la aplicación Apipet" style="html=1;dropTarget=0;whiteSpace=wrap;fillColor=#fff2cc;strokeColor=#d6b656;" vertex="1" parent="1">
          <mxGeometry x="1390" y="340" width="180" height="90" as="geometry" />
        </mxCell>
        <mxCell id="p-Tx8P7YwuyTGG2r0MlX-79" value="" style="shape=module;jettyWidth=8;jettyHeight=4;" vertex="1" parent="p-Tx8P7YwuyTGG2r0MlX-78">
          <mxGeometry x="1" width="20" height="20" relative="1" as="geometry">
            <mxPoint x="-27" y="7" as="offset" />
          </mxGeometry>
        </mxCell>
        <mxCell id="X-4W9-hy-lsw7WwiRjze-3" value="" style="rounded=0;whiteSpace=wrap;html=1;fillColor=none;" vertex="1" parent="1">
          <mxGeometry x="230" y="-230" width="1360" height="970" as="geometry" />
        </mxCell>
        <mxCell id="X-4W9-hy-lsw7WwiRjze-4" value="&lt;h1&gt;Diagrama de componentes Apipet&lt;/h1&gt;&lt;p style=&quot;font-size: 16px;&quot;&gt;El diagrama de componentes de Apipet estuvo motivado para poder estructurar nuestro sistema de información ya que promueve muchos principios de el diseño orientado a objetos como la abstacción y la encapsulación de los objetos de dominio, de igual manera se facilita de manera visual la interacción que van a realizar los componentes dentro de la aplicación, de esta manera cualquiera de los desarrolladores puede comprender el problema y de que manera se da la comunicación entre los componentes y en que nivel&lt;/p&gt;" style="text;html=1;strokeColor=none;fillColor=none;spacing=5;spacingTop=-20;whiteSpace=wrap;overflow=hidden;rounded=0;" vertex="1" parent="1">
          <mxGeometry x="240" y="770" width="770" height="170" as="geometry" />
        </mxCell>
      </root>
    </mxGraphModel>
  </diagram>
</mxfile>
